<mxfile host="app.diagrams.net" modified="2021-05-12T19:37:03.788Z" agent="5.0 (Windows NT 10.0; Win64; x64) AppleWebKit/537.36 (KHTML, like Gecko) Chrome/90.0.4430.93 Safari/537.36" etag="TREarSC6H5mey-Ad0lpp" version="14.6.12" type="github">
  <diagram id="PMGMoOYRtB1Wocx4JLXk" name="Page-1">
    <mxGraphModel dx="523" dy="1496" grid="1" gridSize="10" guides="1" tooltips="1" connect="1" arrows="1" fold="1" page="1" pageScale="1" pageWidth="827" pageHeight="1169" math="0" shadow="0">
      <root>
        <mxCell id="0" />
        <mxCell id="1" parent="0" />
        <mxCell id="blhUzsTUf5PN2vHpYZe9-12" style="edgeStyle=orthogonalEdgeStyle;rounded=0;orthogonalLoop=1;jettySize=auto;html=1;exitX=1;exitY=0.5;exitDx=0;exitDy=0;" edge="1" parent="1" source="blhUzsTUf5PN2vHpYZe9-1" target="blhUzsTUf5PN2vHpYZe9-11">
          <mxGeometry relative="1" as="geometry">
            <Array as="points">
              <mxPoint x="170" y="-350" />
              <mxPoint x="170" y="-350" />
            </Array>
          </mxGeometry>
        </mxCell>
        <mxCell id="blhUzsTUf5PN2vHpYZe9-1" value="Home" style="rounded=0;whiteSpace=wrap;html=1;" vertex="1" parent="1">
          <mxGeometry x="30" y="-380" width="120" height="60" as="geometry" />
        </mxCell>
        <mxCell id="blhUzsTUf5PN2vHpYZe9-40" style="edgeStyle=orthogonalEdgeStyle;rounded=0;orthogonalLoop=1;jettySize=auto;html=1;entryX=0.5;entryY=0;entryDx=0;entryDy=0;" edge="1" parent="1" source="blhUzsTUf5PN2vHpYZe9-2" target="blhUzsTUf5PN2vHpYZe9-3">
          <mxGeometry relative="1" as="geometry" />
        </mxCell>
        <mxCell id="blhUzsTUf5PN2vHpYZe9-2" value="Nav" style="rounded=0;whiteSpace=wrap;html=1;" vertex="1" parent="1">
          <mxGeometry x="45" y="-290" width="90" height="30" as="geometry" />
        </mxCell>
        <mxCell id="blhUzsTUf5PN2vHpYZe9-25" style="edgeStyle=orthogonalEdgeStyle;rounded=0;orthogonalLoop=1;jettySize=auto;html=1;exitX=0.5;exitY=1;exitDx=0;exitDy=0;" edge="1" parent="1" source="blhUzsTUf5PN2vHpYZe9-3" target="blhUzsTUf5PN2vHpYZe9-24">
          <mxGeometry relative="1" as="geometry" />
        </mxCell>
        <mxCell id="blhUzsTUf5PN2vHpYZe9-29" style="edgeStyle=orthogonalEdgeStyle;rounded=0;orthogonalLoop=1;jettySize=auto;html=1;entryX=0.5;entryY=0;entryDx=0;entryDy=0;" edge="1" parent="1" source="blhUzsTUf5PN2vHpYZe9-3" target="blhUzsTUf5PN2vHpYZe9-27">
          <mxGeometry relative="1" as="geometry" />
        </mxCell>
        <mxCell id="blhUzsTUf5PN2vHpYZe9-3" value="Listado de libros" style="rounded=0;whiteSpace=wrap;html=1;" vertex="1" parent="1">
          <mxGeometry x="45" y="-230" width="90" height="30" as="geometry" />
        </mxCell>
        <mxCell id="blhUzsTUf5PN2vHpYZe9-14" style="edgeStyle=orthogonalEdgeStyle;rounded=0;orthogonalLoop=1;jettySize=auto;html=1;exitX=1;exitY=0.5;exitDx=0;exitDy=0;entryX=0;entryY=0.5;entryDx=0;entryDy=0;" edge="1" parent="1" source="blhUzsTUf5PN2vHpYZe9-11" target="blhUzsTUf5PN2vHpYZe9-13">
          <mxGeometry relative="1" as="geometry" />
        </mxCell>
        <mxCell id="blhUzsTUf5PN2vHpYZe9-11" value="Login" style="rounded=0;whiteSpace=wrap;html=1;" vertex="1" parent="1">
          <mxGeometry x="200" y="-365" width="90" height="30" as="geometry" />
        </mxCell>
        <mxCell id="blhUzsTUf5PN2vHpYZe9-32" style="edgeStyle=orthogonalEdgeStyle;rounded=0;orthogonalLoop=1;jettySize=auto;html=1;" edge="1" parent="1" source="blhUzsTUf5PN2vHpYZe9-13" target="blhUzsTUf5PN2vHpYZe9-31">
          <mxGeometry relative="1" as="geometry" />
        </mxCell>
        <mxCell id="blhUzsTUf5PN2vHpYZe9-34" style="edgeStyle=orthogonalEdgeStyle;rounded=0;orthogonalLoop=1;jettySize=auto;html=1;" edge="1" parent="1" source="blhUzsTUf5PN2vHpYZe9-13" target="blhUzsTUf5PN2vHpYZe9-30">
          <mxGeometry relative="1" as="geometry" />
        </mxCell>
        <mxCell id="blhUzsTUf5PN2vHpYZe9-13" value="Admin" style="rhombus;whiteSpace=wrap;html=1;" vertex="1" parent="1">
          <mxGeometry x="330" y="-377.5" width="80" height="55" as="geometry" />
        </mxCell>
        <mxCell id="blhUzsTUf5PN2vHpYZe9-18" value="" style="endArrow=classic;html=1;exitX=0;exitY=0.5;exitDx=0;exitDy=0;entryX=0;entryY=0.5;entryDx=0;entryDy=0;" edge="1" parent="1" source="blhUzsTUf5PN2vHpYZe9-1" target="blhUzsTUf5PN2vHpYZe9-2">
          <mxGeometry width="50" height="50" relative="1" as="geometry">
            <mxPoint x="90" y="-190" as="sourcePoint" />
            <mxPoint x="140" y="-240" as="targetPoint" />
            <Array as="points">
              <mxPoint x="10" y="-350" />
              <mxPoint x="10" y="-275" />
            </Array>
          </mxGeometry>
        </mxCell>
        <mxCell id="blhUzsTUf5PN2vHpYZe9-19" value="" style="endArrow=classic;html=1;entryX=0;entryY=0.5;entryDx=0;entryDy=0;" edge="1" parent="1" target="blhUzsTUf5PN2vHpYZe9-3">
          <mxGeometry width="50" height="50" relative="1" as="geometry">
            <mxPoint x="10" y="-290" as="sourcePoint" />
            <mxPoint x="140" y="-240" as="targetPoint" />
            <Array as="points">
              <mxPoint x="10" y="-215" />
            </Array>
          </mxGeometry>
        </mxCell>
        <mxCell id="blhUzsTUf5PN2vHpYZe9-26" style="edgeStyle=orthogonalEdgeStyle;rounded=0;orthogonalLoop=1;jettySize=auto;html=1;entryX=0.5;entryY=0;entryDx=0;entryDy=0;" edge="1" parent="1" source="blhUzsTUf5PN2vHpYZe9-23" target="blhUzsTUf5PN2vHpYZe9-3">
          <mxGeometry relative="1" as="geometry">
            <Array as="points">
              <mxPoint x="90" y="-250" />
            </Array>
          </mxGeometry>
        </mxCell>
        <mxCell id="blhUzsTUf5PN2vHpYZe9-46" style="edgeStyle=orthogonalEdgeStyle;rounded=0;orthogonalLoop=1;jettySize=auto;html=1;" edge="1" parent="1" source="blhUzsTUf5PN2vHpYZe9-23">
          <mxGeometry relative="1" as="geometry">
            <mxPoint x="270" y="-210" as="targetPoint" />
          </mxGeometry>
        </mxCell>
        <mxCell id="blhUzsTUf5PN2vHpYZe9-47" style="edgeStyle=orthogonalEdgeStyle;rounded=0;orthogonalLoop=1;jettySize=auto;html=1;entryX=0;entryY=0.5;entryDx=0;entryDy=0;" edge="1" parent="1" source="blhUzsTUf5PN2vHpYZe9-23" target="blhUzsTUf5PN2vHpYZe9-44">
          <mxGeometry relative="1" as="geometry" />
        </mxCell>
        <mxCell id="blhUzsTUf5PN2vHpYZe9-48" style="edgeStyle=orthogonalEdgeStyle;rounded=0;orthogonalLoop=1;jettySize=auto;html=1;entryX=0;entryY=0.5;entryDx=0;entryDy=0;" edge="1" parent="1" source="blhUzsTUf5PN2vHpYZe9-23" target="blhUzsTUf5PN2vHpYZe9-45">
          <mxGeometry relative="1" as="geometry" />
        </mxCell>
        <mxCell id="blhUzsTUf5PN2vHpYZe9-23" value="BD" style="shape=cylinder3;whiteSpace=wrap;html=1;boundedLbl=1;backgroundOutline=1;size=15;" vertex="1" parent="1">
          <mxGeometry x="210" y="-280" width="60" height="50" as="geometry" />
        </mxCell>
        <mxCell id="blhUzsTUf5PN2vHpYZe9-28" style="edgeStyle=orthogonalEdgeStyle;rounded=0;orthogonalLoop=1;jettySize=auto;html=1;entryX=0.5;entryY=1;entryDx=0;entryDy=0;" edge="1" parent="1" source="blhUzsTUf5PN2vHpYZe9-24" target="blhUzsTUf5PN2vHpYZe9-27">
          <mxGeometry relative="1" as="geometry" />
        </mxCell>
        <mxCell id="blhUzsTUf5PN2vHpYZe9-24" value="Filtros" style="rounded=0;whiteSpace=wrap;html=1;" vertex="1" parent="1">
          <mxGeometry x="45" y="-170" width="90" height="30" as="geometry" />
        </mxCell>
        <mxCell id="blhUzsTUf5PN2vHpYZe9-27" value="Ver Libro" style="rounded=0;whiteSpace=wrap;html=1;" vertex="1" parent="1">
          <mxGeometry x="140" y="-200" width="90" height="30" as="geometry" />
        </mxCell>
        <mxCell id="blhUzsTUf5PN2vHpYZe9-37" style="edgeStyle=orthogonalEdgeStyle;rounded=0;orthogonalLoop=1;jettySize=auto;html=1;" edge="1" parent="1" source="blhUzsTUf5PN2vHpYZe9-30" target="blhUzsTUf5PN2vHpYZe9-36">
          <mxGeometry relative="1" as="geometry" />
        </mxCell>
        <mxCell id="blhUzsTUf5PN2vHpYZe9-30" value="SI" style="text;html=1;strokeColor=none;fillColor=none;align=center;verticalAlign=middle;whiteSpace=wrap;rounded=0;" vertex="1" parent="1">
          <mxGeometry x="430" y="-360" width="40" height="20" as="geometry" />
        </mxCell>
        <mxCell id="blhUzsTUf5PN2vHpYZe9-33" style="edgeStyle=orthogonalEdgeStyle;rounded=0;orthogonalLoop=1;jettySize=auto;html=1;entryX=0.5;entryY=0;entryDx=0;entryDy=0;" edge="1" parent="1" source="blhUzsTUf5PN2vHpYZe9-31" target="blhUzsTUf5PN2vHpYZe9-2">
          <mxGeometry relative="1" as="geometry" />
        </mxCell>
        <mxCell id="blhUzsTUf5PN2vHpYZe9-31" value="NO" style="text;html=1;strokeColor=none;fillColor=none;align=center;verticalAlign=middle;whiteSpace=wrap;rounded=0;" vertex="1" parent="1">
          <mxGeometry x="350" y="-300" width="40" height="20" as="geometry" />
        </mxCell>
        <mxCell id="blhUzsTUf5PN2vHpYZe9-39" style="edgeStyle=orthogonalEdgeStyle;rounded=0;orthogonalLoop=1;jettySize=auto;html=1;entryX=1;entryY=0.5;entryDx=0;entryDy=0;entryPerimeter=0;" edge="1" parent="1" source="blhUzsTUf5PN2vHpYZe9-36" target="blhUzsTUf5PN2vHpYZe9-23">
          <mxGeometry relative="1" as="geometry" />
        </mxCell>
        <mxCell id="blhUzsTUf5PN2vHpYZe9-36" value="Poder editar" style="rounded=0;whiteSpace=wrap;html=1;" vertex="1" parent="1">
          <mxGeometry x="405" y="-270" width="90" height="30" as="geometry" />
        </mxCell>
        <mxCell id="blhUzsTUf5PN2vHpYZe9-43" value="Libros" style="rounded=0;whiteSpace=wrap;html=1;" vertex="1" parent="1">
          <mxGeometry x="270" y="-220" width="90" height="30" as="geometry" />
        </mxCell>
        <mxCell id="blhUzsTUf5PN2vHpYZe9-44" value="CategorÃ­as" style="rounded=0;whiteSpace=wrap;html=1;" vertex="1" parent="1">
          <mxGeometry x="270" y="-180" width="90" height="30" as="geometry" />
        </mxCell>
        <mxCell id="blhUzsTUf5PN2vHpYZe9-45" value="Usuarios" style="rounded=0;whiteSpace=wrap;html=1;" vertex="1" parent="1">
          <mxGeometry x="270" y="-140" width="90" height="30" as="geometry" />
        </mxCell>
      </root>
    </mxGraphModel>
  </diagram>
</mxfile>
